<?xml version="1.0" encoding="utf-8"?>
<!-- Generator: Adobe Illustrator 23.0.4, SVG Export Plug-In . SVG Version: 6.00 Build 0)  -->
<svg version="1.1" id="Layer_1" xmlns="http://www.w3.org/2000/svg" xmlns:xlink="http://www.w3.org/1999/xlink" x="0px" y="0px"
	 viewBox="0 0 379.5 134" style="enable-background:new 0 0 379.5 134;" xml:space="preserve">
<style type="text/css">
	.st0{fill:#ddd;}
	.st1{fill:#ccc;}
	.st2{fill:#aaa;}
</style>
<g>
	<g>
		<path class="st0" d="M49,97.5c0-11.8-8.7-16-16.3-19.6c-5.9-2.9-11-5.3-11-10.7c0-3.1,1.3-5.4,3.7-6.9c2.4-1.5,5.5-1.8,7.6-1.8
			c4.7,0,7.2,0.8,11.8,2.6l1.2-8c-4-1.4-8.9-2.2-13.4-2.2c-12.3,0-20.3,6.7-20.3,17.2c0,10.6,7.8,14.2,15.3,17.8
			c6.2,2.9,12.1,5.7,12.1,12.3c0,4.3-2.4,6.8-4.4,8.1c-2.3,1.5-5.4,2.4-8.3,2.4c-5.1,0-11.1-2.2-13.1-3l-0.9,8.1
			c4.1,1.3,8.4,2.6,12.9,2.6C40.5,116.3,49,109.5,49,97.5z"/>
		<path class="st0" d="M99,85.6c4.6-3.3,6.9-8.2,6.9-14.7c0-6.7-2.3-11.7-7-14.8c-4-2.7-9.6-4.1-16.7-4.1H65.7v63.3h8.8V89.8h9.1
			C89.8,89.8,95.2,88.3,99,85.6z M74.5,59.6h7.9c5.7,0,14.2,3,14.2,11.1c0,3.8-1.5,6.9-4.3,8.9c-3.1,2.2-6.7,2.5-8.6,2.5h-9.2V59.6z
			"/>
		<path class="st0" d="M152.8,99.2l0,0.1l6.4,15.9h9.6L142.1,52h-9.3l-27,63.3h9.2l6.5-16H152.8z M137.1,59.9L150,92.1h-25.8
			L137.1,59.9z"/>
		<path class="st0" d="M205,93.3l9.7,22h10l-11.9-25.1c-2-3.8-3.3-5.2-6.1-6.3l-0.1,0v-0.4l0.1,0c7.8-1.3,13-7.1,13-14.3
			c0-15-11.8-17.1-24.5-17.1h-15.4v63.3h8.8V87h5.6C199,87,202.1,87,205,93.3z M188.5,59.6h8.9c8.2,0,12.9,3.5,12.9,9.6
			c0,6.2-5.3,10.1-13.9,10.1h-7.9V59.6z"/>
		<polygon class="st0" points="278.4,115.2 291.2,115.2 259.1,81.9 288.9,52 277.2,52 249.8,80.2 249.8,52 241,52 241,115.2 
			249.8,115.2 249.8,83.8 250.1,84.1 		"/>
		<path class="st0" d="M336,97.5c0-11.8-8.7-16-16.3-19.6c-5.9-2.9-11-5.3-11-10.7c0-3.1,1.3-5.4,3.7-6.9c2.4-1.5,5.5-1.8,7.6-1.8
			c4.7,0,7.2,0.8,11.8,2.6l1.2-8c-4-1.4-8.9-2.2-13.4-2.2c-12.3,0-20.3,6.7-20.3,17.2c0,10.6,7.8,14.2,15.3,17.8
			c6.2,2.9,12.1,5.7,12.1,12.3c0,4.3-2.4,6.8-4.4,8.1c-2.3,1.5-5.4,2.4-8.3,2.4c-5.1,0-11.1-2.2-13.1-3l-0.9,8.1
			c4.1,1.3,8.4,2.6,12.9,2.6C327.6,116.3,336,109.5,336,97.5z"/>
	</g>
	<g>
		<g>
			<path class="st1" d="M355,36.8l-10.6-8.8c0,0-1.4-1.4-3.1-1.4c-1.6,0-3.1,1.4-3.1,1.4l-10.6,8.9l0,0l8.9-10.6c0,0,1.4-1.4,1.4-3
				c0-1.6-1.4-3-1.4-3l-8.9-10.6l0,0l10.6,8.9c0,0,1.4,1.4,3.1,1.4c1.6,0,3.1-1.4,3.1-1.4L355,9.6l0,0l-8.9,10.6c0,0-1.4,1.4-1.4,3
				c0,1.6,1.4,3,1.4,3L355,36.8L355,36.8z"/>
		</g>
		<g>
			<path class="st2" d="M374.2,72.2l-6.5-5.3c0,0-0.9-0.8-1.9-0.8c-1,0-1.9,0.9-1.9,0.9l-6.4,5.5l0,0l5.4-6.5c0,0,0.8-0.9,0.8-1.9
				c0-1-0.9-1.8-0.9-1.8l-5.5-6.4l0,0l6.5,5.3c0,0,0.9,0.8,1.9,0.8c1,0,1.9-0.9,1.9-0.9l6.4-5.5l0,0l-5.3,6.5c0,0-0.8,0.9-0.8,1.9
				c0,1,0.9,1.8,0.9,1.8L374.2,72.2L374.2,72.2z"/>
		</g>
	</g>
</g>
</svg>
